<?xml version="1.0" encoding="UTF-8"?> <svg xmlns="http://www.w3.org/2000/svg" width="199.935" height="75" viewBox="0 0 199.935 75"><g id="Grupo_5" data-name="Grupo 5" transform="translate(-118 150)"><g id="Grupo_3" data-name="Grupo 3" transform="translate(213.146 -108.882)"><g id="Grupo_1" data-name="Grupo 1" transform="translate(0.214)"><path id="Trazado_2" data-name="Trazado 2" d="M3603.4,1293.122h8.194l.306,11.471,6.922-11.532h6.893l.781,11.532,6.448-11.471h8.393l-14.259,24.06h-6.968l-1.026-11.885-7.367,11.885h-6.968Z" transform="translate(-3603.396 -1292.302)" fill="#fff"></path><path id="Trazado_3" data-name="Trazado 3" d="M3672.358,1293.177h20.369l-1.776,6.555h-12.528l-.643,2.42h11.67l-1.531,5.774h-11.671l-.719,2.589h12.7l-1.747,6.554h-20.538Z" transform="translate(-3633.013 -1292.356)" fill="#fff"></path><path id="Trazado_4" data-name="Trazado 4" d="M3715.005,1306.864a12.15,12.15,0,0,0,7.824,3.422c1,0,1.7-.374,1.7-1.072,0-.762-.437-1-3.811-2.32a15.318,15.318,0,0,1-4.357-2.307,5.4,5.4,0,0,1-1.975-4.507c0-4.665,4.106-8.461,10.438-8.461a15.887,15.887,0,0,1,9.624,3.031l-3.727,6.132a10.869,10.869,0,0,0-6.69-2.691c-1,0-1.7.28-1.7.963,0,.732.5.871,3.72,2.116a18.445,18.445,0,0,1,3.509,1.71,5.859,5.859,0,0,1,2.947,5.244c0,4.868-3.844,8.682-10.5,8.682-.237,0-.472-.007-.7-.018a16.7,16.7,0,0,1-9.985-3.712Z" transform="translate(-3654.499 -1291.619)" fill="#fff"></path><path id="Trazado_5" data-name="Trazado 5" d="M3763.734,1299.931h-7.03l1.807-6.754h22.054l-1.807,6.754h-7.03l-4.61,17.138h-7.979Z" transform="translate(-3675.991 -1292.356)" fill="#fff"></path></g><g id="Grupo_2" data-name="Grupo 2" transform="translate(0 27.806)"><path id="Trazado_6" data-name="Trazado 6" d="M3604.46,1344.58h4.149l-.291,1.088h-2.925l-.307,1.133h2.574l-.291,1.073H3604.8l-.321,1.179h2.986l-.292,1.087h-4.181Z" transform="translate(-3602.989 -1344.504)" fill="#fff"></path><path id="Trazado_7" data-name="Trazado 7" d="M3621.973,1344.58h1.119l1.623,3.522.95-3.522h1.21l-1.486,5.544h-1.042l-1.685-3.63-.979,3.63h-1.21Z" transform="translate(-3611.268 -1344.504)" fill="#fff"></path><path id="Trazado_8" data-name="Trazado 8" d="M3642.315,1350.01a2.408,2.408,0,0,1-.828-.444,2.262,2.262,0,0,1-.6-.75,2.364,2.364,0,0,1-.229-1.072,3.159,3.159,0,0,1,.261-1.24,3.312,3.312,0,0,1,.719-1.057,3.6,3.6,0,0,1,1.087-.735,3.488,3.488,0,0,1,1.4-.276,4.271,4.271,0,0,1,.8.076,2.315,2.315,0,0,1,.627.215,2.211,2.211,0,0,1,.491.306,2.591,2.591,0,0,1,.352.368l-.9.8a2.235,2.235,0,0,0-.6-.46,1.852,1.852,0,0,0-.873-.184,1.925,1.925,0,0,0-.827.184,2.083,2.083,0,0,0-.659.475,2.317,2.317,0,0,0-.444.689,2.161,2.161,0,0,0-.168.827,1.425,1.425,0,0,0,.107.582,1.052,1.052,0,0,0,.306.413,1.423,1.423,0,0,0,.445.261,1.6,1.6,0,0,0,.551.092,2.156,2.156,0,0,0,.566-.061,2.365,2.365,0,0,0,.429-.153l.259-.9h-1.224l.291-1.057h2.4l-.781,2.772a5.33,5.33,0,0,1-.9.383,4.025,4.025,0,0,1-1.118.153A6.788,6.788,0,0,1,3642.315,1350.01Z" transform="translate(-3620.827 -1344.435)" fill="#fff"></path><path id="Trazado_9" data-name="Trazado 9" d="M3660.707,1344.58h1.225l-1.485,5.544h-1.226Z" transform="translate(-3629.616 -1344.504)" fill="#fff"></path><path id="Trazado_10" data-name="Trazado 10" d="M3673.173,1344.58h1.118l1.624,3.522.949-3.522h1.21l-1.486,5.544h-1.041l-1.685-3.63-.98,3.63h-1.21Z" transform="translate(-3635.513 -1344.504)" fill="#fff"></path><path id="Trazado_11" data-name="Trazado 11" d="M3692.532,1344.58h4.15l-.291,1.088h-2.941l-.306,1.133h2.574l-.292,1.073h-2.573l-.322,1.179h2.987l-.292,1.087h-4.181Z" transform="translate(-3644.686 -1344.504)" fill="#fff"></path><path id="Trazado_12" data-name="Trazado 12" d="M3710.087,1344.58h4.15l-.291,1.088h-2.925l-.306,1.133h2.573l-.29,1.073h-2.573l-.322,1.179h2.986l-.291,1.087h-4.181Z" transform="translate(-3653.006 -1344.504)" fill="#fff"></path><path id="Trazado_13" data-name="Trazado 13" d="M3727.6,1344.58h2.021a3.534,3.534,0,0,1,1.057.138,1.683,1.683,0,0,1,.7.413,1.5,1.5,0,0,1,.429,1.118,1.919,1.919,0,0,1-.444,1.271,2.538,2.538,0,0,1-1.332.72l.95,1.9h-1.394l-.858-1.776h-.9l-.475,1.776h-1.225Zm1.593,2.7a2.07,2.07,0,0,0,.536-.061,1.582,1.582,0,0,0,.428-.168.88.88,0,0,0,.292-.291.816.816,0,0,0,.107-.4.643.643,0,0,0-.169-.445,1.142,1.142,0,0,0-.812-.229h-1.026l-.43,1.577h1.073Z" transform="translate(-3661.299 -1344.504)" fill="#fff"></path><path id="Trazado_14" data-name="Trazado 14" d="M3746.175,1344.58h1.225l-1.486,5.544h-1.225Z" transform="translate(-3670.087 -1344.504)" fill="#fff"></path><path id="Trazado_15" data-name="Trazado 15" d="M3758.641,1344.58h1.119l1.623,3.522.95-3.522h1.21l-1.486,5.544h-1.041l-1.686-3.63-.979,3.63h-1.21Z" transform="translate(-3675.984 -1344.504)" fill="#fff"></path><path id="Trazado_16" data-name="Trazado 16" d="M3778.984,1350.01a2.4,2.4,0,0,1-.828-.444,2.244,2.244,0,0,1-.6-.75,2.358,2.358,0,0,1-.229-1.072,3.166,3.166,0,0,1,.26-1.24,3.315,3.315,0,0,1,.72-1.057,3.6,3.6,0,0,1,1.087-.735,3.486,3.486,0,0,1,1.394-.276,4.269,4.269,0,0,1,.8.076,2.324,2.324,0,0,1,.628.215,2.219,2.219,0,0,1,.49.306,2.591,2.591,0,0,1,.352.368l-.9.8a2.235,2.235,0,0,0-.6-.46,1.855,1.855,0,0,0-.874-.184,1.927,1.927,0,0,0-.827.184,2.086,2.086,0,0,0-.659.475,2.318,2.318,0,0,0-.444.689,2.161,2.161,0,0,0-.168.827,1.417,1.417,0,0,0,.107.582,1.043,1.043,0,0,0,.306.413,1.418,1.418,0,0,0,.444.261,1.608,1.608,0,0,0,.552.092,2.152,2.152,0,0,0,.566-.061,2.352,2.352,0,0,0,.429-.153l.26-.9h-1.225l.291-1.057h2.4l-.781,2.772a5.324,5.324,0,0,1-.9.383,4.031,4.031,0,0,1-1.118.153A6.773,6.773,0,0,1,3778.984,1350.01Z" transform="translate(-3685.544 -1344.435)" fill="#fff"></path></g></g><g id="Grupo_4" data-name="Grupo 4" transform="translate(118 -150)"><path id="Trazado_17" data-name="Trazado 17" d="M3439.894,1303.372l-17.628-38.779h0a14.854,14.854,0,0,1,19.665,7.367l17.628,38.779h0A14.857,14.857,0,0,1,3439.894,1303.372Z" transform="translate(-3422.266 -1237.071)" fill="#fff"></path><path id="Trazado_18" data-name="Trazado 18" d="M3488.621,1303.372l-17.628-38.779h0a14.853,14.853,0,0,1,19.665,7.367l17.628,38.779h0A14.857,14.857,0,0,1,3488.621,1303.372Z" transform="translate(-3445.34 -1237.071)" fill="#fff"></path><path id="Trazado_19" data-name="Trazado 19" d="M3573.217,1214.837l-21.2,46.636a14.641,14.641,0,0,1-4.167,5.391,14.939,14.939,0,0,1-9.357,3.308,14.68,14.68,0,0,1-5.759-1.179c-.092-.031-.184-.076-.275-.107a.771.771,0,0,0-.108-.046l-.061-.138-12.573-27.66a14.842,14.842,0,0,1,19.665,7.382l1.072,2.374.062.138.046-.092,13-28.609a14.864,14.864,0,0,1,13.523-8.715A14.3,14.3,0,0,1,3573.217,1214.837Z" transform="translate(-3468.413 -1213.518)" fill="#fff"></path></g></g></svg> 